<svg width="231" height="47" viewBox="0 0 231 47" fill="none" xmlns="http://www.w3.org/2000/svg">
<path d="M120.522 44.1667C120.522 25.2914 139.605 28.3333 170.739 28.3333C197.588 28.3333 231 28.3333 231 2.83333C231 2.08189 230.471 1.36121 229.529 0.829862C228.587 0.298509 227.31 0 225.978 0C224.646 0 223.369 0.298509 222.427 0.829862C221.486 1.36121 220.957 2.08189 220.957 2.83333C220.957 21.7086 201.874 22.6667 170.739 22.6667C150.203 22.6667 125.827 22.666 115.5 34.0775C105.173 22.666 80.7966 22.6667 60.2609 22.6667C29.1263 22.6667 10.0435 21.7086 10.0435 2.83333C10.0435 2.08189 9.51441 1.36121 8.57265 0.829862C7.63089 0.298509 6.35359 0 5.02174 0C3.6899 0 2.4126 0.298509 1.47084 0.829862C0.529082 1.36121 0 2.08189 0 2.83333C0 28.3333 33.4125 28.3333 60.2609 28.3333C91.3954 28.3333 110.478 25.2914 110.478 44.1667C110.478 44.9181 111.007 45.6388 111.949 46.1701C112.891 46.7015 114.168 47 115.5 47C116.832 47 118.109 46.7015 119.051 46.1701C119.993 45.6388 120.522 44.9181 120.522 44.1667Z" fill="#1190C6"/>
</svg>
