<svg width="86" height="82" viewBox="0 0 86 82" fill="none" xmlns="http://www.w3.org/2000/svg">
<path d="M40.1779 2.82611C41.131 0.182998 44.869 0.183002 45.8221 2.82612L54.3588 26.4994C54.7758 27.6559 55.8563 28.4409 57.0851 28.4802L82.2377 29.2836C85.0459 29.3733 86.2011 32.9283 83.9818 34.6515L64.1052 50.0858C63.1341 50.8398 62.7214 52.11 63.0638 53.2908L70.0723 77.4606C70.8548 80.1591 67.8307 82.3563 65.506 80.7782L44.685 66.6438C43.6678 65.9533 42.3322 65.9533 41.315 66.6438L20.494 80.7782C18.1693 82.3563 15.1452 80.1591 15.9277 77.4606L22.9362 53.2908C23.2786 52.11 22.8659 50.8398 21.8948 50.0858L2.01817 34.6515C-0.201055 32.9283 0.954059 29.3733 3.76234 29.2836L28.9149 28.4802C30.1437 28.4409 31.2242 27.6559 31.6412 26.4994L40.1779 2.82611Z" fill="#1190C6"/>
</svg>
